<?xml version="1.0" standalone="no"?>
<!DOCTYPE svg PUBLIC "-//W3C//DTD SVG 20010904//EN"
 "http://www.w3.org/TR/2001/REC-SVG-20010904/DTD/svg10.dtd">
<svg version="1.0" xmlns="http://www.w3.org/2000/svg"
 width="1110.000000pt" height="1110.000000pt" viewBox="0 0 1110.000000 1110.000000"
 preserveAspectRatio="xMidYMid meet">
<metadata>
Created by potrace 1.14, written by Peter Selinger 2001-2017
</metadata>
<g transform="translate(0.000000,1110.000000) scale(0.100000,-0.100000)"
fill="#000000" stroke="none">
<path d="M5305 10684 c-1129 -59 -2176 -470 -3050 -1198 -158 -132 -505 -479
-635 -636 -561 -678 -939 -1469 -1104 -2315 -77 -392 -110 -726 -110 -1110 0
-568 78 -1068 248 -1595 316 -982 948 -1876 1767 -2501 705 -536 1499 -875
2354 -1004 298 -44 384 -50 775 -50 242 0 418 5 495 13 680 75 1242 238 1820
530 982 497 1776 1289 2272 2267 377 745 557 1499 557 2340 0 384 -33 718
-110 1110 -146 746 -462 1462 -919 2080 -270 366 -671 768 -1040 1046 -456
344 -1004 626 -1531 790 -494 153 -947 225 -1459 233 -143 2 -291 2 -330 0z
m746 -278 c890 -99 1692 -411 2394 -931 362 -268 724 -628 996 -990 488 -649
805 -1404 923 -2198 43 -289 51 -398 51 -737 0 -339 -8 -448 -51 -737 -118
-796 -431 -1540 -923 -2198 -270 -360 -633 -721 -996 -990 -645 -478 -1394
-788 -2185 -904 -263 -38 -380 -46 -710 -46 -330 0 -447 8 -710 46 -717 105
-1401 370 -2012 780 -423 284 -857 697 -1169 1114 -492 658 -805 1402 -923
2198 -43 289 -51 398 -51 737 0 339 8 448 51 737 118 794 435 1549 923 2198
272 362 634 722 996 990 573 424 1247 724 1930 859 229 45 422 70 690 90 114
9 648 -4 776 -18z"/>
<path d="M6152 9398 c-6 -6 -23 -12 -38 -14 -33 -4 -43 -13 -25 -23 7 -5 12
-14 9 -21 -7 -22 -35 -19 -59 6 l-22 23 -19 -24 c-10 -13 -28 -25 -41 -27 -15
-2 -22 -10 -22 -25 0 -22 -68 -103 -86 -103 -5 0 -9 -9 -9 -20 0 -11 -11 -27
-24 -35 -13 -9 -39 -46 -58 -83 -45 -87 -61 -116 -72 -123 -5 -4 -6 -11 -3
-16 11 -18 -121 -364 -144 -379 -5 -3 -9 -14 -9 -25 0 -10 -4 -19 -8 -19 -4 0
-13 -21 -19 -47 -6 -27 -30 -102 -53 -168 -36 -106 -95 -346 -115 -475 -4 -25
-11 -50 -16 -56 -5 -6 -8 -22 -8 -35 1 -13 -6 -67 -15 -119 -9 -52 -24 -135
-32 -185 -9 -49 -16 -109 -16 -132 0 -24 -3 -43 -7 -43 -3 0 -6 -39 -6 -87 0
-72 -24 -366 -40 -488 -3 -29 -16 -402 -18 -550 -1 -62 9 -360 18 -565 4 -75
15 -202 20 -230 2 -8 6 -44 10 -80 4 -36 9 -67 10 -70 2 -3 6 -30 10 -60 27
-247 37 -295 115 -585 5 -16 33 -102 63 -191 30 -88 58 -174 61 -191 l7 -30
-133 -6 c-296 -13 -560 -73 -650 -147 l-38 -31 -2 -162 -3 -161 -45 -9 c-369
-69 -685 -209 -814 -360 -70 -83 -88 -132 -94 -263 l-5 -112 -76 -27 c-116
-42 -270 -119 -331 -168 -66 -52 -128 -139 -141 -197 -22 -96 39 -197 170
-285 81 -53 147 -84 296 -140 l109 -41 32 -77 c37 -90 77 -140 159 -202 127
-96 307 -172 550 -235 184 -48 267 -63 471 -89 872 -109 1850 32 2239 324 82
62 122 112 159 202 l32 77 109 41 c283 105 425 207 461 330 19 68 8 119 -43
193 -65 96 -168 164 -362 242 l-116 47 -6 119 c-6 135 -20 172 -96 262 -130
153 -437 287 -831 363 l-63 12 4 121 c3 67 8 137 12 157 6 32 3 38 -27 64 -43
36 -101 61 -213 90 -99 26 -279 55 -344 55 -36 0 -41 3 -41 23 -1 36 -10 98
-25 162 -8 33 -16 89 -19 125 -4 60 -31 184 -57 270 -19 62 4 152 77 306 51
108 82 158 138 224 107 127 137 166 204 267 34 51 71 97 83 103 12 7 18 18 15
26 -7 18 14 54 31 54 6 0 18 6 25 14 125 130 138 147 138 176 0 20 -5 30 -15
30 -30 0 -54 37 -55 87 -1 26 -2 68 -3 93 -2 44 5 159 20 365 11 136 10 344
-2 500 -14 200 -8 759 10 885 20 135 15 164 -30 172 -12 2 -21 13 -24 28 -1
14 -11 36 -21 50 -11 15 -21 55 -25 100 -4 41 -9 86 -11 100 -6 51 -17 277
-17 355 0 171 15 431 27 455 7 14 11 36 9 50 -2 14 -4 33 -4 42 0 10 -5 20
-10 23 -5 4 -2 13 6 22 10 9 13 22 9 32 -3 9 -9 27 -12 41 -3 20 -2 23 8 13 7
-6 19 -9 27 -6 11 5 10 9 -5 27 -11 11 -22 30 -24 41 -6 35 -113 76 -136 53z"/>
</g>
</svg>
