<?xml version="1.0" standalone="no"?>
<!DOCTYPE svg PUBLIC "-//W3C//DTD SVG 20010904//EN"
 "http://www.w3.org/TR/2001/REC-SVG-20010904/DTD/svg10.dtd">
<svg version="1.0" xmlns="http://www.w3.org/2000/svg"
 width="1110.000000pt" height="1110.000000pt" viewBox="0 0 1110.000000 1110.000000"
 preserveAspectRatio="xMidYMid meet">
<metadata>
Created by potrace 1.14, written by Peter Selinger 2001-2017
</metadata>
<g transform="translate(0.000000,1110.000000) scale(0.100000,-0.100000)"
fill="#000000" stroke="none">
<path d="M5235 10674 c-1422 -91 -2732 -761 -3641 -1864 -633 -768 -1034
-1726 -1139 -2722 -51 -482 -39 -1004 35 -1477 112 -721 392 -1432 811 -2058
356 -531 861 -1036 1392 -1392 625 -418 1341 -699 2062 -810 304 -46 426 -55
795 -55 378 0 505 9 817 59 986 159 1935 620 2653 1291 798 747 1316 1656
1545 2718 129 600 147 1359 46 1987 -200 1239 -829 2347 -1784 3142 -653 544
-1408 909 -2232 1081 -346 73 -579 97 -975 100 -179 2 -352 2 -385 0z m769
-259 c430 -41 830 -131 1221 -275 1153 -425 2096 -1259 2659 -2353 290 -562
452 -1115 522 -1782 24 -222 24 -680 0 -910 -85 -837 -354 -1593 -809 -2270
-715 -1064 -1820 -1808 -3061 -2061 -351 -71 -611 -97 -986 -97 -305 0 -477
12 -740 53 -1263 196 -2380 865 -3155 1890 -285 378 -530 828 -689 1271 -199
554 -290 1079 -289 1674 1 995 277 1899 835 2734 615 918 1561 1617 2628 1939
390 118 713 173 1210 206 108 7 498 -4 654 -19z"/>
<path d="M6410 9073 c-43 -6 -143 -45 -181 -69 -263 -165 -509 -589 -673
-1157 -47 -163 -101 -410 -115 -520 l-8 -69 150 -104 c83 -57 152 -102 154
-100 2 2 15 77 28 166 70 464 227 1071 343 1322 146 316 356 449 505 318 113
-100 152 -338 112 -690 -57 -494 -317 -1836 -581 -2997 -67 -294 -206 -861
-239 -978 -6 -19 -15 -20 -208 -20 -175 0 -209 -3 -252 -19 -109 -42 -267
-167 -329 -261 -46 -68 -113 -225 -122 -286 -10 -62 -29 -95 -61 -106 -45 -14
-871 16 -918 33 l-20 7 20 -22 c11 -13 29 -27 40 -32 14 -7 9 -8 -18 -4 -36 6
-38 5 -27 -14 11 -21 28 -27 170 -60 131 -30 372 -68 525 -81 50 -4 127 -13
172 -20 l82 -13 3 -261 3 -261 32 -65 c63 -130 164 -231 297 -295 190 -91 429
-145 645 -145 147 0 182 12 215 76 19 35 21 57 21 214 l0 175 -31 66 c-38 80
-91 141 -153 177 -25 14 -59 41 -76 59 -66 72 -200 131 -334 146 l-43 5 28
-30 29 -31 -27 7 c-16 3 -28 3 -27 -1 1 -13 111 -102 179 -146 104 -66 208
-178 258 -278 68 -138 55 -169 -69 -169 -157 0 -394 59 -531 132 -65 34 -163
133 -184 185 -10 24 -14 86 -14 234 l0 202 58 -7 c31 -3 170 -13 307 -21 329
-20 536 -43 617 -70 186 -61 201 -69 278 -146 41 -41 92 -99 112 -129 44 -65
148 -308 148 -346 0 -73 58 -124 143 -124 121 0 177 65 238 277 29 100 32 123
36 298 l5 190 727 0 726 0 115 32 c63 18 140 40 170 50 l55 18 0 59 c-1 52 -4
61 -30 82 -43 34 -125 61 -253 84 -129 23 -181 41 -270 90 l-63 35 6 60 c4 33
9 96 11 140 2 59 113 582 414 1950 226 1029 420 1911 431 1961 57 264 73 484
45 623 -10 46 -28 105 -41 131 -39 76 -118 155 -193 192 -58 29 -77 33 -166
36 -72 3 -119 -1 -165 -13 -287 -74 -610 -387 -934 -905 -305 -487 -641 -1163
-969 -1945 -48 -115 -88 -207 -88 -203 0 4 38 192 85 417 114 552 202 1063
241 1401 21 187 30 645 15 791 -31 299 -105 506 -227 638 -100 108 -224 155
-354 134z m2271 -624 c50 -16 105 -61 132 -112 20 -37 22 -56 21 -172 0 -122
-4 -147 -63 -410 -65 -291 -89 -400 -316 -1430 -189 -860 -295 -1344 -431
-1955 -112 -509 -135 -649 -111 -668 7 -5 32 -17 56 -26 27 -10 61 -36 85 -63
22 -25 62 -63 89 -84 27 -22 46 -39 43 -39 -3 0 -8 1 -9 3 -2 1 -10 -3 -18 -8
-9 -7 -174 -12 -472 -14 -252 -2 -484 -6 -515 -11 -69 -9 -93 -1 -123 42 -56
82 -160 197 -239 266 -149 132 -435 305 -537 327 -18 4 -33 9 -33 12 0 2 38
125 84 271 285 900 555 1572 957 2382 375 757 661 1219 906 1465 185 187 357
265 494 224z m-2841 -4488 c0 -5 -9 -38 -20 -73 -11 -34 -20 -80 -20 -100 l0
-38 164 0 164 0 32 105 c19 58 38 105 44 105 21 0 102 -34 131 -56 17 -12 83
-48 148 -79 65 -31 137 -73 160 -94 23 -21 56 -45 73 -54 49 -25 120 -100 148
-156 l26 -51 -22 -4 c-43 -9 -824 -14 -993 -6 -256 12 -461 19 -552 20 -129 0
-135 16 -63 165 32 65 55 96 129 168 96 93 125 110 236 138 74 19 215 25 215
10z m1188 -753 c5 -7 13 -58 17 -114 5 -79 3 -113 -9 -155 -8 -30 -18 -70 -21
-90 -8 -51 -62 -119 -96 -119 -28 0 -41 20 -55 85 -3 17 -17 55 -29 85 -13 30
-29 70 -36 89 -7 18 -43 76 -81 128 -37 52 -68 96 -68 98 0 3 83 5 184 5 135
0 186 -3 194 -12z"/>
<path d="M4520 9027 c-99 -36 -175 -89 -285 -201 -125 -126 -203 -242 -310
-461 -177 -359 -278 -674 -330 -1025 -44 -298 -36 -681 20 -892 31 -121 153
-386 181 -395 8 -3 81 55 257 203 23 20 26 27 17 44 -8 15 -8 20 1 20 6 0 -1
19 -15 43 -221 358 -285 838 -182 1367 39 199 124 459 205 624 238 482 555
615 665 278 43 -133 51 -194 50 -417 -3 -529 -133 -1264 -364 -2050 -54 -182
-145 -474 -180 -572 -10 -28 -18 -33 -93 -53 -348 -93 -681 -217 -977 -364
-786 -390 -1425 -1035 -1620 -1636 -40 -125 -54 -218 -54 -360 1 -213 48 -346
163 -461 239 -238 655 -208 1085 79 653 437 1376 1447 1828 2557 23 55 42 101
43 103 5 6 287 32 352 32 l72 0 10 53 c5 28 10 67 10 86 l0 34 -122 -6 c-67
-4 -152 -10 -188 -13 l-67 -7 79 235 c315 941 442 1881 343 2547 -47 321 -149
521 -305 602 -67 35 -202 38 -289 6z m-377 -3699 c-276 -711 -595 -1353 -843
-1698 -282 -394 -588 -697 -827 -819 -158 -81 -322 -110 -435 -77 -103 30
-190 120 -240 248 -30 75 -36 243 -14 363 86 458 449 979 945 1353 362 273
857 513 1324 642 56 16 103 29 104 29 2 1 -5 -18 -14 -41z"/>
</g>
</svg>
